<?xml version="1.0" encoding="UTF-8" standalone="no"?>
<!DOCTYPE svg PUBLIC "-//W3C//DTD SVG 1.1//EN" "http://www.w3.org/Graphics/SVG/1.1/DTD/svg11.dtd">
<svg version="1.1" xmlns="http://www.w3.org/2000/svg" xmlns:xlink="http://www.w3.org/1999/xlink" preserveAspectRatio="xMidYMid meet" viewBox="0 0 640 640" width="640" height="640"><defs><path d="M614.65 276.91C500.7 276.91 437.4 276.91 424.74 276.91C448.79 246.71 462.57 204.2 466.87 170.98C467.04 169.66 467.9 163.04 469.44 151.14C457.47 150.21 450.82 149.69 449.5 149.58C436.92 148.6 426.12 140.77 421.3 129.15C415.7 115.62 419.48 100.23 430.71 90.87C431.83 89.93 437.42 85.27 447.49 76.88C437.78 68.07 432.39 63.17 431.32 62.19C412.79 45.37 389.27 36.11 365.08 36.11C356.23 36.11 347.48 37.34 339.01 39.75C339.01 37.1 339.01 23.85 339.01 0L300.99 0C300.99 23.85 300.99 37.1 300.99 39.75C292.52 37.34 283.77 36.11 274.92 36.11C217.93 36.11 171.57 86.51 171.57 148.47C171.57 179.91 181.96 219.92 198.03 250.4C203.27 260.32 209.04 269.17 215.25 276.91C202.86 276.91 140.89 276.91 29.35 276.91L29.35 429L54.69 429L54.69 482.45L0 482.45L0 640L601.98 640L601.98 520.47L640 520.47L640 390.97L614.65 390.97L614.65 276.91ZM274.92 74.13C286.93 74.13 298.74 77.96 309.07 85.22C309.8 85.73 313.44 88.3 320 92.91C326.56 88.3 330.2 85.74 330.93 85.22C341.26 77.97 353.07 74.13 365.09 74.13C374.03 74.13 382.66 76.14 390.66 80.03C379.39 98.94 377.35 122.4 386.17 143.7C393.78 162.05 408.33 175.99 426.22 182.9C421.5 204.38 413.22 225.62 402.97 242.02C384.93 270.86 366.36 276.91 353.95 276.91C344.82 276.91 340.66 275.89 330.66 269.12C329.95 268.64 326.4 266.23 320 261.9C313.6 266.23 310.05 268.64 309.34 269.12C299.34 275.89 295.18 276.91 286.06 276.91C238.62 276.91 209.59 193.75 209.59 148.47C209.59 107.48 238.9 74.13 274.92 74.13ZM38.02 525.19C50.94 532.03 59.77 545.61 59.77 561.22C59.77 576.83 50.94 590.41 38.02 597.26C38.02 582.84 38.02 532.4 38.02 525.19ZM86.4 601.98C90.45 595.31 93.52 588 95.45 580.23C126.69 580.23 282.85 580.23 563.95 580.23L563.95 601.98C277.42 601.98 118.24 601.98 86.4 601.98ZM95.45 542.21C93.52 534.45 90.45 527.14 86.4 520.47C118.24 520.47 277.42 520.47 563.96 520.47L563.96 542.21C282.86 542.21 126.69 542.21 95.45 542.21ZM92.72 429L475.24 429L475.24 482.45L92.72 482.45L92.72 429ZM513.26 429L538.61 429L538.61 482.45L513.26 482.45L513.26 429ZM67.37 390.97L67.37 314.93L576.63 314.93L576.63 390.97L67.37 390.97ZM576.63 482.45L576.63 429L601.98 429L601.98 482.45L576.63 482.45Z" id="a1uE4AkJAE"></path><path d="M143.51 333.94C143.51 333.94 143.51 333.94 143.51 333.94C143.51 356.76 143.51 369.43 143.51 371.96C143.51 371.96 143.51 371.96 143.51 371.96C118.16 371.96 104.08 371.96 101.26 371.96C101.26 371.96 101.26 371.96 101.26 371.96C101.26 349.15 101.26 336.48 101.26 333.94C101.26 333.94 101.26 333.94 101.26 333.94C126.61 333.94 140.69 333.94 143.51 333.94Z" id="ajySAbLiS"></path><path d="M206.87 333.94C206.87 333.94 206.87 333.94 206.87 333.94C206.87 356.76 206.87 369.43 206.87 371.96C206.87 371.96 206.87 371.96 206.87 371.96C181.53 371.96 167.45 371.96 164.63 371.96C164.63 371.96 164.63 371.96 164.63 371.96C164.63 349.15 164.63 336.48 164.63 333.94C164.63 333.94 164.63 333.94 164.63 333.94C189.98 333.94 204.06 333.94 206.87 333.94Z" id="a3QfYfXR4"></path><path d="M270.24 333.94C270.24 333.94 270.24 333.94 270.24 333.94C270.24 356.76 270.24 369.43 270.24 371.96C270.24 371.96 270.24 371.96 270.24 371.96C244.9 371.96 230.82 371.96 228 371.96C228 371.96 228 371.96 228 371.96C228 349.15 228 336.48 228 333.94C228 333.94 228 333.94 228 333.94C253.35 333.94 267.43 333.94 270.24 333.94Z" id="b2VxURcZcy"></path><path d="M542.73 333.94C542.73 333.94 542.73 333.94 542.73 333.94C542.73 356.76 542.73 369.43 542.73 371.96C542.73 371.96 542.73 371.96 542.73 371.96C517.39 371.96 503.3 371.96 500.49 371.96C500.49 371.96 500.49 371.96 500.49 371.96C500.49 349.15 500.49 336.48 500.49 333.94C500.49 333.94 500.49 333.94 500.49 333.94C525.83 333.94 539.91 333.94 542.73 333.94Z" id="a3TweF07j9"></path></defs><g><g><g><use xlink:href="#a1uE4AkJAE" opacity="1" fill="#13b479" fill-opacity="1"></use><g><use xlink:href="#a1uE4AkJAE" opacity="1" fill-opacity="0" stroke="#000000" stroke-width="1" stroke-opacity="0"></use></g></g><g><use xlink:href="#ajySAbLiS" opacity="1" fill="#13b479" fill-opacity="1"></use><g><use xlink:href="#ajySAbLiS" opacity="1" fill-opacity="0" stroke="#000000" stroke-width="1" stroke-opacity="0"></use></g></g><g><use xlink:href="#a3QfYfXR4" opacity="1" fill="#13b479" fill-opacity="1"></use><g><use xlink:href="#a3QfYfXR4" opacity="1" fill-opacity="0" stroke="#000000" stroke-width="1" stroke-opacity="0"></use></g></g><g><use xlink:href="#b2VxURcZcy" opacity="1" fill="#13b479" fill-opacity="1"></use><g><use xlink:href="#b2VxURcZcy" opacity="1" fill-opacity="0" stroke="#000000" stroke-width="1" stroke-opacity="0"></use></g></g><g><use xlink:href="#a3TweF07j9" opacity="1" fill="#13b479" fill-opacity="1"></use><g><use xlink:href="#a3TweF07j9" opacity="1" fill-opacity="0" stroke="#000000" stroke-width="1" stroke-opacity="0"></use></g></g></g></g></svg>