<?xml version="1.0" encoding="iso-8859-1"?>
<!-- Generator: Adobe Illustrator 19.0.0, SVG Export Plug-In . SVG Version: 6.00 Build 0)  -->
<svg version="1.1" id="Capa_1" xmlns="http://www.w3.org/2000/svg" xmlns:xlink="http://www.w3.org/1999/xlink" x="0px" y="0px"
	 viewBox="0 0 512 512" style="enable-background:new 0 0 512 512;" xml:space="preserve">
<g>
	<g>
		<path style="fill:#13b479" d="M475.353,424.792H71.532c-16.104,0-29.203,13.099-29.203,29.203v28.802c0,16.104,13.104,29.203,29.203,29.203h403.821
			c16.104,0,29.203-13.099,29.203-29.203v-28.802C504.556,437.891,491.457,424.792,475.353,424.792z M487.114,482.792
			c0,6.484-5.276,11.761-11.761,11.761H71.532c-6.484,0-11.761-5.276-11.761-11.761V453.99c0-6.484,5.276-11.761,11.761-11.761
			h403.821c6.484,0,11.761,5.276,11.761,11.761V482.792z"/>
	</g>
</g>
<g>
	<g>
		<path style="fill:#13b479" d="M440.468,355.021H36.647c-16.104,0-29.203,13.099-29.203,29.203v28.802c0,16.104,13.104,29.203,29.203,29.203h403.821
			c16.104,0,29.203-13.099,29.203-29.203v-28.802C469.671,368.121,456.572,355.021,440.468,355.021z M452.229,413.022
			c0,6.484-5.276,11.761-11.761,11.761H36.647c-6.484,0-11.761-5.276-11.761-11.761V384.22c0-6.484,5.276-11.761,11.761-11.761
			h403.821c6.484,0,11.761,5.276,11.761,11.761V413.022z"/>
	</g>
</g>
<g>
	<g>
		<path style="fill:#13b479" d="M475.353,250.362H71.532c-16.104,0-29.203,13.099-29.203,29.203v63.692c0,16.104,13.104,29.203,29.203,29.203h403.821
			c16.104,0,29.203-13.099,29.203-29.208v-63.687C504.556,263.461,491.457,250.362,475.353,250.362z M487.114,343.252
			c0,6.484-5.276,11.761-11.761,11.761H71.532c-6.484,0-11.761-5.276-11.761-11.761v-63.687c0-6.484,5.276-11.761,11.761-11.761
			h403.821c6.484,0,11.761,5.276,11.761,11.761V343.252z"/>
	</g>
</g>
<g>
	<g>
		<path style="fill:#13b479" d="M440.468,206.755H71.532c-16.104,0-29.203,13.104-29.203,29.203v2.643c0,16.104,13.104,29.203,29.203,29.203h368.936
			c16.104,0,29.203-13.099,29.203-29.203v-2.643C469.671,219.855,456.572,206.755,440.468,206.755z M452.229,238.601
			c0,6.484-5.276,11.761-11.761,11.761H71.532c-6.484,0-11.761-5.276-11.761-11.761v-2.643c0-6.484,5.276-11.761,11.761-11.761
			h368.936c6.484,0,11.761,5.276,11.761,11.761V238.601z"/>
	</g>
</g>
<g>
	<g>
		<path style="fill:#13b479" d="M295.246,259.083c-4.814,0-8.721,3.907-8.721,8.721v87.213c0,4.814,3.907,8.721,8.721,8.721
			c4.818,0,8.721-3.903,8.721-8.721v-87.213C303.967,262.99,300.06,259.083,295.246,259.083z"/>
	</g>
</g>
<g>
	<g>
		<path style="fill:#13b479" d="M295.246,389.902H146.984c-4.814,0-8.721,3.907-8.721,8.721c0,4.814,3.907,8.721,8.721,8.721h148.262
			c4.818,0,8.721-3.907,8.721-8.721C303.967,393.809,300.06,389.902,295.246,389.902z"/>
	</g>
</g>
<g>
	<g>
		<path style="fill:#13b479" d="M208.033,433.508c-4.814,0-8.721,3.907-8.721,8.721v61.049c0,4.814,3.907,8.721,8.721,8.721
			c4.819,0,8.721-3.903,8.721-8.721V442.23C216.754,437.416,212.847,433.508,208.033,433.508z"/>
	</g>
</g>
<g>
	<g>
		<path style="fill:#13b479" d="M251.639,424.787c-4.814,0-8.721,3.907-8.721,8.721v69.77c0,4.814,3.907,8.721,8.721,8.721
			c4.819,0,8.721-3.903,8.721-8.721v-69.77C260.361,428.694,256.453,424.787,251.639,424.787z"/>
	</g>
</g>
<g>
	<g>
		<path style="fill:#13b479" d="M190.59,206.755c-4.814,0-8.721,3.907-8.721,8.721v34.885c0,4.814,3.907,8.721,8.721,8.721
			c4.818,0,8.721-3.903,8.721-8.721v-34.885C199.312,210.662,195.405,206.755,190.59,206.755z"/>
	</g>
</g>
<g>
	<g>
		<path style="fill:#13b479" d="M199.312,250.362H120.82c-4.814,0-8.721,3.907-8.721,8.721v78.492c0,3.218,1.77,6.17,4.605,7.692
			c2.839,1.513,6.279,1.347,8.952-0.436l34.41-22.941l34.41,22.941c1.456,0.977,3.144,1.465,4.836,1.465
			c1.413,0,2.826-0.34,4.116-1.029c2.834-1.522,4.605-4.478,4.605-7.692v-78.492C208.033,254.269,204.126,250.362,199.312,250.362z
			 M190.59,321.279l-25.689-17.124c-1.465-0.977-3.148-1.465-4.836-1.465s-3.371,0.488-4.836,1.465l-25.688,17.124v-53.474h61.049
			V321.279z"/>
	</g>
</g>
<g>
	<g>
		<path style="fill:#13b479" d="M348.712,50.03c-25.366-18.864-61.119-11.739-70.908-9.284c-9.785-2.455-45.547-9.585-70.904,9.284
			c-16.61,12.354-25.03,32.809-25.03,60.792c0,52.428,41.906,113.377,95.934,113.377s95.934-60.944,95.934-113.377
			C373.737,82.839,365.321,62.383,348.712,50.03z M277.803,206.755c-43.48,0-78.492-52.48-78.492-95.934
			c0-22.135,6.039-37.868,17.944-46.759c9.672-7.221,22.03-9.245,32.862-9.245c13.723,0,24.986,3.249,25.183,3.31
			c1.631,0.488,3.371,0.484,4.997,0.004c0.358-0.109,36.132-10.444,58.053,5.93c11.905,8.891,17.944,24.625,17.944,46.759
			C356.295,154.275,321.283,206.755,277.803,206.755z"/>
	</g>
</g>
<g>
	<g>
		<path style="fill:#13b479" d="M292.69,12.332L280.358,0c-1.884,1.884-11.277,13.13-11.277,49.772c0,4.814,3.907,8.721,8.721,8.721
			c4.818,0,8.721-3.903,8.721-8.721c0-29.26,6.445-37.728,6.51-37.811C292.826,12.227,292.69,12.332,292.69,12.332z"/>
	</g>
</g>
<g>
</g>
<g>
</g>
<g>
</g>
<g>
</g>
<g>
</g>
<g>
</g>
<g>
</g>
<g>
</g>
<g>
</g>
<g>
</g>
<g>
</g>
<g>
</g>
<g>
</g>
<g>
</g>
<g>
</g>
</svg>
