<?xml version="1.0" encoding="UTF-8" standalone="no"?>
<!DOCTYPE svg PUBLIC "-//W3C//DTD SVG 1.1//EN" "http://www.w3.org/Graphics/SVG/1.1/DTD/svg11.dtd">
<svg version="1.1" xmlns="http://www.w3.org/2000/svg" xmlns:xlink="http://www.w3.org/1999/xlink" preserveAspectRatio="xMidYMid meet" viewBox="0 0 640 640" width="640" height="640"><defs><path d="M568.21 125.32C561.48 125.32 527.82 125.32 467.22 125.32C467.22 124.59 467.22 124.19 467.22 124.11C467.22 108.9 461.14 94.3 450.8 84.56C440.46 74.22 426.46 68.14 411.25 68.14C393 68.14 247 68.14 228.75 68.14C212.93 68.14 198.94 74.22 188.59 84.56C178.25 94.9 172.17 108.9 172.17 124.11C172.17 124.19 172.17 124.59 172.17 125.32C111.94 125.32 78.48 125.32 71.79 125.32C51.71 125.32 34.07 133.23 21.29 146.62C8.52 159.39 0 177.64 0 197.11C0 227.41 0 469.78 0 500.08C0 520.15 7.91 537.79 21.29 550.57C34.07 563.35 52.32 571.86 71.79 571.86C121.43 571.86 518.57 571.86 568.21 571.86C588.29 571.86 605.93 563.95 618.71 550.57C631.48 537.79 640 519.54 640 500.08C640 469.78 640 227.41 640 197.11C640 177.03 632.09 159.39 618.71 146.62C605.93 133.23 588.29 125.32 568.21 125.32ZM607.76 500.08C607.76 511.03 603.5 520.76 596.2 528.06C588.9 535.36 579.16 539.62 568.21 539.62C518.57 539.62 121.43 539.62 71.79 539.62C60.84 539.62 51.1 535.36 43.8 528.06C36.5 520.76 32.24 511.03 32.24 500.08C32.24 469.78 32.24 227.41 32.24 197.11C32.24 186.16 36.5 176.43 43.8 169.13C51.1 161.83 60.84 157.57 71.79 157.57C83.53 157.57 177.46 157.57 189.2 157.57C198.33 157.57 205.63 150.27 205.63 141.14C205.63 139.38 205.63 125.26 205.63 123.5C205.63 116.81 208.06 110.72 212.32 106.46C216.58 102.21 222.66 99.77 229.35 99.77C247.54 99.77 393.06 99.77 411.25 99.77C417.95 99.77 424.03 102.21 428.29 106.46C432.55 110.72 434.98 116.81 434.98 123.5C434.98 125.26 434.98 139.38 434.98 141.14C434.98 150.27 442.28 157.57 451.41 157.57C463.15 157.57 557.08 157.57 568.82 157.57C579.77 157.57 589.51 161.83 596.81 169.13C604.11 176.43 608.37 186.16 608.37 197.11C608.37 217.31 608.37 318.3 608.37 500.08C608 500.08 607.8 500.08 607.76 500.08Z" id="c6htaOiwzX"></path><path d="M214.14 242.74C186.77 270.11 170.34 307.22 170.34 348.59C170.34 389.96 187.38 427.68 214.14 454.45C241.52 481.83 278.63 498.25 320 498.25C361.37 498.25 399.09 481.22 425.86 454.45C453.23 427.07 469.66 389.96 469.66 348.59C469.66 307.22 452.62 269.51 425.86 242.74C399.09 215.97 361.37 198.94 320 198.94C278.63 198.94 240.91 215.97 214.14 242.74ZM320 466.01C287.76 466.01 258.56 452.62 237.26 431.94C215.97 410.65 203.19 381.44 203.19 349.2C203.19 316.96 216.58 287.76 237.26 266.46C258.56 245.17 287.76 232.4 320 232.4C352.24 232.4 381.44 245.78 402.74 266.46C424.03 287.76 436.81 316.96 436.81 349.2C437.41 381.44 424.03 410.65 402.74 431.94C381.44 452.62 352.24 466.01 320 466.01Z" id="a5Ut47YVlQ"></path><path d="M536.58 198.33C520.11 198.33 506.77 211.67 506.77 228.14C506.77 244.6 520.11 257.95 536.58 257.95C553.04 257.95 566.39 244.6 566.39 228.14C566.39 211.67 553.04 198.33 536.58 198.33Z" id="k1VmhHFezw"></path></defs><g><g><g><use xlink:href="#c6htaOiwzX" opacity="1" fill="#13b479" fill-opacity="1"></use><g><use xlink:href="#c6htaOiwzX" opacity="1" fill-opacity="0" stroke="#000000" stroke-width="1" stroke-opacity="0"></use></g></g><g><use xlink:href="#a5Ut47YVlQ" opacity="1" fill="#13b479" fill-opacity="1"></use><g><use xlink:href="#a5Ut47YVlQ" opacity="1" fill-opacity="0" stroke="#000000" stroke-width="1" stroke-opacity="0"></use></g></g><g><use xlink:href="#k1VmhHFezw" opacity="1" fill="#13b479" fill-opacity="1"></use><g><use xlink:href="#k1VmhHFezw" opacity="1" fill-opacity="0" stroke="#000000" stroke-width="1" stroke-opacity="0"></use></g></g></g></g></svg>