<svg xmlns="http://www.w3.org/2000/svg" viewBox="0 0 512 512" width="512" height="512">
	<defs>
		<linearGradient id="grd1" gradientUnits="userSpaceOnUse"  x1="29.147" y1="24.357" x2="441.433" y2="598.096">
			<stop offset="0" stop-color="#18372f"  />
			<stop offset="1" stop-color="#d9deda"  />
		</linearGradient>
		<linearGradient id="grd2" gradientUnits="userSpaceOnUse"  x1="-575.252" y1="788.48" x2="63.252" y2="-317.44">
			<stop offset="0" stop-color="#ffffff"  />
			<stop offset="1" stop-color="#13b479"  />
			<stop offset="1" stop-color="#000000"  />
		</linearGradient>
	</defs>
	<style>
		tspan { white-space:pre }
		.shp0 { fill: url(#grd1) } 
		.shp1 { opacity: 0.678;fill: #ffffff;stroke: #ffffff;stroke-opacity:0.275;stroke-width: 2.7 } 
	</style>
	<g id="g8">
	</g>
	<g id="g10">
	</g>
	<g id="g12">
	</g>
	<g id="g14">
	</g>
	<g id="g16">
	</g>
	<g id="g18">
	</g>
	<g id="g20">
	</g>
	<g id="g22">
	</g>
	<g id="g24">
	</g>
	<g id="g26">
	</g>
	<g id="g28">
	</g>
	<g id="g30">
	</g>
	<g id="g32">
	</g>
	<g id="g34">
	</g>
	<g id="g36">
	</g>
	<path id="rect846" class="shp0" d="M0 0L512 0L512 512L0 512L0 0Z" />
	<rect width="512" height="512" id="Gradient Fill 1" style="fill: url(#grd2)" />
	<path id="path833" fill-rule="evenodd" class="shp1" d="M265.63 32.1C365.65 33.25 351.02 109.44 347.56 119.64C370.81 132.49 384.09 169.21 324.73 188.78C356.77 201.84 386.7 223.35 388.66 254.01C390.61 284.66 361.91 274.88 354.74 264.44C365.83 297.06 347.39 300.33 342.35 317.93C354.78 351.57 342.15 360.4 318.86 386.42C330.95 409.36 339.12 423.18 332.24 435.99C334.63 449.75 335.22 456.7 311.69 468.93C306.92 471.41 308.86 479.01 305.17 480.34C296.77 483.37 279.08 467.95 306.47 453.6C333.87 439.25 300.93 429.79 300.93 429.79C300.93 429.79 250.44 427.83 276.79 376.47C288.06 354.52 236.41 350.94 200.8 329.51C161.24 305.69 165.97 283.64 163.3 261.51C151.85 271.96 107.09 279.41 131.66 237.7C143.32 217.9 180.91 199.54 194.61 191.39C194.61 191.39 124.01 166.96 172.1 112.46C175.36 72.67 164.28 35.49 255.59 32.23C259.06 32.11 262.41 32.07 265.63 32.1ZM305.84 85.39C303.63 85.39 301.44 85.82 299.4 86.65C297.36 87.49 295.5 88.71 293.94 90.25C292.37 91.79 291.13 93.62 290.29 95.64C289.44 97.65 289.01 99.81 289.01 101.99C289.01 104.17 289.44 106.33 290.29 108.35C291.13 110.36 292.37 112.19 293.94 113.73C295.5 115.27 297.36 116.5 299.4 117.33C301.44 118.17 303.63 118.6 305.84 118.6C308.05 118.6 310.24 118.17 312.28 117.33C314.33 116.5 316.18 115.27 317.75 113.73C319.31 112.19 320.55 110.36 321.4 108.35C322.24 106.33 322.68 104.17 322.68 101.99C322.68 99.81 322.24 97.65 321.4 95.64C320.55 93.62 319.31 91.79 317.75 90.25C316.18 88.71 314.33 87.48 312.28 86.65C310.24 85.82 308.05 85.39 305.84 85.39ZM208.2 88.49C206.86 88.98 205.56 89.68 204.36 90.56C203.15 91.44 202.04 92.5 201.08 93.69C200.11 94.89 199.3 96.21 198.66 97.61C197.82 99.45 197.3 101.39 197.13 103.33C196.96 105.27 197.14 107.17 197.66 108.92C198.18 110.67 199.04 112.23 200.17 113.52C201.31 114.81 202.7 115.8 204.28 116.44C205.85 117.08 207.58 117.34 209.35 117.23C211.13 117.11 212.92 116.62 214.63 115.77C216.34 114.92 217.92 113.73 219.3 112.28C220.68 110.82 221.82 109.13 222.65 107.29C223.49 105.46 224.01 103.51 224.18 101.57C224.35 99.63 224.17 97.73 223.65 95.99C223.13 94.24 222.28 92.67 221.14 91.38C220.01 90.09 218.61 89.1 217.04 88.47C216.66 88.32 216.28 88.19 215.9 88.08C215.51 87.97 215.12 87.88 214.71 87.81C214.31 87.74 213.91 87.7 213.5 87.67C213.09 87.65 212.67 87.64 212.25 87.66C210.9 87.72 209.53 87.99 208.2 88.49ZM262.7 113.07C261.49 112.98 260.18 114.47 258.57 115.58C256.74 116.84 253.53 116.63 252.35 116.32C251.17 116.01 247.85 113.32 246.34 114.76C244.84 116.19 246.46 117.62 247.4 118.59C251.15 122.41 260.66 119.86 262.3 118.65C263.93 117.44 265.37 114.28 263.21 113.22C263.04 113.13 262.87 113.09 262.7 113.07L262.7 113.07Z" />
</svg>