<?xml version="1.0" encoding="UTF-8" standalone="no"?>
<!-- Generator: Adobe Illustrator 19.0.0, SVG Export Plug-In . SVG Version: 6.00 Build 0)  -->

<svg
   xmlns:osb="http://www.openswatchbook.org/uri/2009/osb"
   xmlns:dc="http://purl.org/dc/elements/1.1/"
   xmlns:cc="http://creativecommons.org/ns#"
   xmlns:rdf="http://www.w3.org/1999/02/22-rdf-syntax-ns#"
   xmlns:svg="http://www.w3.org/2000/svg"
   xmlns="http://www.w3.org/2000/svg"
   xmlns:xlink="http://www.w3.org/1999/xlink"
   xmlns:sodipodi="http://sodipodi.sourceforge.net/DTD/sodipodi-0.dtd"
   xmlns:inkscape="http://www.inkscape.org/namespaces/inkscape"
   version="1.1"
   id="Capa_1"
   x="0px"
   y="0px"
   viewBox="0 0 512 512"
   style="enable-background:new 0 0 512 512;"
   xml:space="preserve"
   sodipodi:docname="fantasma_fra.svg"
   inkscape:version="0.92.4 (5da689c313, 2019-01-14)"
   inkscape:export-filename="C:\Users\marco\Desktop\fantasma_fra.png"
   inkscape:export-xdpi="96"
   inkscape:export-ydpi="96"><metadata
   id="metadata43"><rdf:RDF><cc:Work
       rdf:about=""><dc:format>image/svg+xml</dc:format><dc:type
         rdf:resource="http://purl.org/dc/dcmitype/StillImage" /><dc:title></dc:title></cc:Work></rdf:RDF></metadata><defs
   id="defs41"><linearGradient
     id="linearGradient860"
     osb:paint="solid"><stop
       style="stop-color:#373837;stop-opacity:1;"
       offset="0"
       id="stop858" /></linearGradient><linearGradient
     inkscape:collect="always"
     id="linearGradient852"><stop
       style="stop-color:#18372f;stop-opacity:1"
       offset="0"
       id="stop848" /><stop
       style="stop-color:#d9deda;stop-opacity:1"
       offset="1"
       id="stop850" /></linearGradient><linearGradient
     inkscape:collect="always"
     xlink:href="#linearGradient852"
     id="linearGradient856"
     x1="29.147181"
     y1="24.356613"
     x2="441.43314"
     y2="598.09589"
     gradientUnits="userSpaceOnUse" /></defs><sodipodi:namedview
   pagecolor="#ffffff"
   bordercolor="#666666"
   borderopacity="1"
   objecttolerance="10"
   gridtolerance="10"
   guidetolerance="10"
   inkscape:pageopacity="0"
   inkscape:pageshadow="2"
   inkscape:window-width="1920"
   inkscape:window-height="1017"
   id="namedview39"
   showgrid="false"
   inkscape:zoom="1.3037281"
   inkscape:cx="190.21972"
   inkscape:cy="264.91423"
   inkscape:window-x="3192"
   inkscape:window-y="-8"
   inkscape:window-maximized="1"
   inkscape:current-layer="Capa_1" />



<g
   id="g8">
</g>
<g
   id="g10">
</g>
<g
   id="g12">
</g>
<g
   id="g14">
</g>
<g
   id="g16">
</g>
<g
   id="g18">
</g>
<g
   id="g20">
</g>
<g
   id="g22">
</g>
<g
   id="g24">
</g>
<g
   id="g26">
</g>
<g
   id="g28">
</g>
<g
   id="g30">
</g>
<g
   id="g32">
</g>
<g
   id="g34">
</g>
<g
   id="g36">
</g>
<rect
   style="opacity:1;fill:url(#linearGradient856);fill-opacity:1;stroke:none;stroke-width:4.06592989;stroke-miterlimit:4;stroke-dasharray:16.26371935, 16.26371934999999880;stroke-dashoffset:0;stroke-opacity:1"
   id="rect846"
   width="512"
   height="512"
   x="0"
   y="0" /><path
   style="display:inline;fill:#ffffff;fill-opacity:1;stroke:#ffffff;stroke-width:2.7;stroke-linecap:butt;stroke-linejoin:miter;stroke-opacity:0.27459016;stroke-miterlimit:4;stroke-dasharray:none;opacity:0.677"
   d="m 245.63399,31.104678 c -3.22617,-0.03705 -6.57132,0.0036 -10.04032,0.128004 -91.31836,3.261373 -80.22982,40.439878 -83.49119,80.228598 -48.09618,54.49401 22.5035,78.92614 22.50352,78.92614 -13.69777,8.15342 -51.28252,26.51111 -62.94432,46.31066 -24.568889,41.71335 20.18358,34.26564 31.63481,23.8083 2.67238,22.13637 -2.0535,44.18122 37.50586,67.99912 35.60668,21.43806 87.25649,25.01012 75.99003,46.96482 -26.35385,51.35509 24.13363,53.32326 24.13364,53.32326 0,0 32.94007,9.45711 5.54455,23.80715 -27.39551,14.35003 -9.7007,29.77063 -1.30481,26.74325 3.69699,-1.33306 1.7549,-8.93625 6.52285,-11.41442 23.53225,-12.231 22.94398,-19.17945 20.54689,-32.93962 6.8891,-12.80832 -1.29032,-26.62727 -13.37103,-49.57326 23.29009,-26.01847 35.91459,-34.85151 23.48179,-68.48886 5.03993,-17.59351 23.48141,-20.87281 12.39275,-53.48649 7.175,10.43637 35.87475,20.22077 33.9179,-10.43611 -1.95681,-30.65687 -31.88852,-52.17005 -63.92258,-65.22742 59.35691,-19.56822 46.07386,-56.2883 22.83002,-69.14067 3.45113,-10.19227 18.081,-86.384741 -81.93036,-87.532452 z m 40.20706,53.282147 a 16.8348,16.604184 0 0 1 16.83566,16.604295 16.8348,16.604184 0 0 1 -16.83566,16.60429 16.8348,16.604184 0 0 1 -16.83447,-16.60429 16.8348,16.604184 0 0 1 16.83447,-16.604295 z m -93.5867,2.273726 a 12.895162,15.409939 30.532672 0 1 4.78117,0.804491 12.895162,15.409939 30.532672 0 1 5.61853,18.828688 12.895162,15.409939 30.532672 0 1 -18.37769,9.14656 12.895162,15.409939 30.532672 0 1 -5.61854,-18.829859 12.895162,15.409939 30.532672 0 1 13.59653,-9.94988 z m 50.44236,25.411439 c 0.17306,0.0133 0.34351,0.0594 0.51322,0.14328 2.16178,1.06966 0.72134,4.22135 -0.9149,5.43533 -1.63622,1.21398 -11.14687,3.75762 -14.8931,-0.0622 -0.94564,-0.96422 -2.56587,-2.39722 -1.05935,-3.83339 1.50652,-1.43618 4.8236,1.25045 6.00727,1.56084 1.18368,0.31039 4.38879,0.5231 6.22221,-0.73873 1.60423,-1.10411 2.91309,-2.59871 4.12465,-2.50509 z"
   id="path833"
   inkscape:connector-curvature="0" /></svg>