<?xml version="1.0" encoding="UTF-8" standalone="no"?>
<!DOCTYPE svg PUBLIC "-//W3C//DTD SVG 1.1//EN" "http://www.w3.org/Graphics/SVG/1.1/DTD/svg11.dtd">
<svg version="1.1" xmlns="http://www.w3.org/2000/svg" xmlns:xlink="http://www.w3.org/1999/xlink" preserveAspectRatio="xMidYMid meet" viewBox="0 0 640 640" width="640" height="640"><defs><path d="M117.33 0C87.89 0.03 64.03 23.89 64 53.33C64 82.13 64 312.53 64 341.33C64.03 370.77 87.89 394.63 117.33 394.67C127.06 394.67 175.68 394.67 263.19 394.67L247.96 448L213.33 448L213.33 469.33L426.67 469.33L426.67 448L392.04 448L376.81 394.67C464.32 394.67 512.94 394.67 522.67 394.67C552.11 394.63 575.97 370.77 576 341.33C576 312.53 576 82.13 576 53.33C575.97 23.89 552.11 0.03 522.67 0C441.6 0 157.87 0 117.33 0ZM285.38 394.67L354.62 394.67L369.86 448L270.14 448L285.38 394.67ZM522.67 373.33C482.13 373.33 157.87 373.33 117.33 373.33C99.66 373.33 85.33 359.01 85.33 341.33C85.33 339.91 85.33 332.8 85.33 320L554.67 320L554.67 341.33C545.12 362.67 534.45 373.33 522.67 373.33ZM85.33 298.67C85.33 151.47 85.33 69.69 85.33 53.33C85.33 35.66 99.66 21.33 117.33 21.33C157.87 21.33 482.13 21.33 522.67 21.33C540.34 21.33 554.67 35.66 554.67 53.33C554.67 69.69 554.67 151.47 554.67 298.67L85.33 298.67Z" id="b6hQatq94h"></path><path d="M106.67 490.67C100.78 490.67 96 495.44 96 501.33C96 514.13 96 616.53 96 629.33C96 635.22 100.78 640 106.67 640C136.53 640 375.47 640 405.33 640C411.22 640 416 635.22 416 629.33C416 616.53 416 514.13 416 501.33C416 495.44 411.22 490.67 405.33 490.67C345.6 490.67 136.53 490.67 106.67 490.67ZM117.33 618.67L117.33 512L394.67 512L394.67 618.67L117.33 618.67Z" id="a8YD6zNR2"></path><path d="M160 576C160 576 160 576 160 576C160 588.8 160 595.91 160 597.33C160 597.33 160 597.33 160 597.33C147.2 597.33 140.09 597.33 138.67 597.33C138.67 597.33 138.67 597.33 138.67 597.33C138.67 584.53 138.67 577.42 138.67 576C138.67 576 138.67 576 138.67 576C151.47 576 158.58 576 160 576Z" id="bofhAJAE"></path><path d="M160 533.33C160 533.33 160 533.33 160 533.33C160 546.13 160 553.24 160 554.67C160 554.67 160 554.67 160 554.67C147.2 554.67 140.09 554.67 138.67 554.67C138.67 554.67 138.67 554.67 138.67 554.67C138.67 541.87 138.67 534.76 138.67 533.33C138.67 533.33 138.67 533.33 138.67 533.33C151.47 533.33 158.58 533.33 160 533.33Z" id="a1Js0Q2h0K"></path><path d="M202.67 533.33C202.67 533.33 202.67 533.33 202.67 533.33C202.67 546.13 202.67 553.24 202.67 554.67C202.67 554.67 202.67 554.67 202.67 554.67C189.87 554.67 182.76 554.67 181.33 554.67C181.33 554.67 181.33 554.67 181.33 554.67C181.33 541.87 181.33 534.76 181.33 533.33C181.33 533.33 181.33 533.33 181.33 533.33C194.13 533.33 201.24 533.33 202.67 533.33Z" id="hoRzrRhU3"></path><path d="M245.33 533.33C245.33 533.33 245.33 533.33 245.33 533.33C245.33 546.13 245.33 553.24 245.33 554.67C245.33 554.67 245.33 554.67 245.33 554.67C232.53 554.67 225.42 554.67 224 554.67C224 554.67 224 554.67 224 554.67C224 541.87 224 534.76 224 533.33C224 533.33 224 533.33 224 533.33C236.8 533.33 243.91 533.33 245.33 533.33Z" id="d3hEWNManr"></path><path d="M330.67 533.33C330.67 533.33 330.67 533.33 330.67 533.33C330.67 546.13 330.67 553.24 330.67 554.67C330.67 554.67 330.67 554.67 330.67 554.67C317.87 554.67 310.76 554.67 309.33 554.67C309.33 554.67 309.33 554.67 309.33 554.67C309.33 541.87 309.33 534.76 309.33 533.33C309.33 533.33 309.33 533.33 309.33 533.33C322.13 533.33 329.24 533.33 330.67 533.33Z" id="czErCzzn3"></path><path d="M288 533.33C288 533.33 288 533.33 288 533.33C288 546.13 288 553.24 288 554.67C288 554.67 288 554.67 288 554.67C275.2 554.67 268.09 554.67 266.67 554.67C266.67 554.67 266.67 554.67 266.67 554.67C266.67 541.87 266.67 534.76 266.67 533.33C266.67 533.33 266.67 533.33 266.67 533.33C279.47 533.33 286.58 533.33 288 533.33Z" id="a13gAnklhB"></path><path d="M373.33 576C373.33 576 373.33 576 373.33 576C373.33 588.8 373.33 595.91 373.33 597.33C373.33 597.33 373.33 597.33 373.33 597.33C360.53 597.33 353.42 597.33 352 597.33C352 597.33 352 597.33 352 597.33C352 584.53 352 577.42 352 576C352 576 352 576 352 576C364.8 576 371.91 576 373.33 576Z" id="b2wEe7axGY"></path><path d="M373.33 533.33C373.33 533.33 373.33 533.33 373.33 533.33C373.33 546.13 373.33 553.24 373.33 554.67C373.33 554.67 373.33 554.67 373.33 554.67C360.53 554.67 353.42 554.67 352 554.67C352 554.67 352 554.67 352 554.67C352 541.87 352 534.76 352 533.33C352 533.33 352 533.33 352 533.33C364.8 533.33 371.91 533.33 373.33 533.33Z" id="aUtAEayGu"></path><path d="M330.67 576C330.67 576 330.67 576 330.67 576C330.67 588.8 330.67 595.91 330.67 597.33C330.67 597.33 330.67 597.33 330.67 597.33C241.07 597.33 191.29 597.33 181.33 597.33C181.33 597.33 181.33 597.33 181.33 597.33C181.33 584.53 181.33 577.42 181.33 576C181.33 576 181.33 576 181.33 576C270.93 576 320.71 576 330.67 576Z" id="anhIADelz"></path><path d="M437.33 544C437.33 548.27 437.33 582.4 437.33 586.67C437.33 616.12 461.21 640 490.67 640C520.12 640 544 616.12 544 586.67C544 582.4 544 548.27 544 544C544 514.55 520.12 490.67 490.67 490.67C461.21 490.67 437.33 514.55 437.33 544ZM490.67 618.67C472.99 618.67 458.67 604.34 458.67 586.67C458.67 582.4 458.67 548.27 458.67 544C458.67 526.33 472.99 512 490.67 512C508.34 512 522.67 526.33 522.67 544C522.67 546.84 522.67 561.07 522.67 586.67C513.12 608 502.45 618.67 490.67 618.67Z" id="bxDPjF1UE"></path><path d="M501.33 533.33C501.33 533.33 501.33 533.33 501.33 533.33C501.33 546.13 501.33 553.24 501.33 554.67C501.33 554.67 501.33 554.67 501.33 554.67C488.53 554.67 481.42 554.67 480 554.67C480 554.67 480 554.67 480 554.67C480 541.87 480 534.76 480 533.33C480 533.33 480 533.33 480 533.33C492.8 533.33 499.91 533.33 501.33 533.33Z" id="a32GNQqoK"></path><path d="M331.03 93.29C331.03 93.29 331.03 93.29 331.03 93.29C343.33 96.81 350.16 98.77 351.53 99.16C351.53 99.16 351.53 99.16 351.53 99.16C325.91 188.71 311.67 238.46 308.83 248.41C308.83 248.41 308.83 248.41 308.83 248.41C296.52 244.89 289.69 242.93 288.32 242.54C288.32 242.54 288.32 242.54 288.32 242.54C313.95 152.99 328.18 103.24 331.03 93.29Z" id="aul0xHHr"></path><path d="M249.17 109.14C210.77 141.14 189.44 158.92 185.17 162.47C180.65 166.25 180.04 172.97 183.81 177.5C184.23 177.99 184.68 178.45 185.17 178.86C189.44 182.41 210.77 200.19 249.17 232.19L262.83 215.81L208.66 170.67L262.83 125.53L249.17 109.14Z" id="as7fKVgWR"></path><path d="M454.83 162.47C450.56 158.92 429.23 141.14 390.83 109.14L377.17 125.53L431.34 170.67L377.17 215.81L390.83 232.19C429.23 200.19 450.56 182.41 454.83 178.86C459.35 175.09 459.96 168.36 456.19 163.83C455.77 163.34 455.32 162.89 454.83 162.47Z" id="bNCVm7l89"></path></defs><g><g><g><use xlink:href="#b6hQatq94h" opacity="1" fill="#13b479" fill-opacity="1"></use><g><use xlink:href="#b6hQatq94h" opacity="1" fill-opacity="0" stroke="#000000" stroke-width="1" stroke-opacity="0"></use></g></g><g><use xlink:href="#a8YD6zNR2" opacity="1" fill="#13b479" fill-opacity="1"></use><g><use xlink:href="#a8YD6zNR2" opacity="1" fill-opacity="0" stroke="#000000" stroke-width="1" stroke-opacity="0"></use></g></g><g><use xlink:href="#bofhAJAE" opacity="1" fill="#13b479" fill-opacity="1"></use><g><use xlink:href="#bofhAJAE" opacity="1" fill-opacity="0" stroke="#000000" stroke-width="1" stroke-opacity="0"></use></g></g><g><use xlink:href="#a1Js0Q2h0K" opacity="1" fill="#13b479" fill-opacity="1"></use><g><use xlink:href="#a1Js0Q2h0K" opacity="1" fill-opacity="0" stroke="#000000" stroke-width="1" stroke-opacity="0"></use></g></g><g><use xlink:href="#hoRzrRhU3" opacity="1" fill="#13b479" fill-opacity="1"></use><g><use xlink:href="#hoRzrRhU3" opacity="1" fill-opacity="0" stroke="#000000" stroke-width="1" stroke-opacity="0"></use></g></g><g><use xlink:href="#d3hEWNManr" opacity="1" fill="#13b479" fill-opacity="1"></use><g><use xlink:href="#d3hEWNManr" opacity="1" fill-opacity="0" stroke="#000000" stroke-width="1" stroke-opacity="0"></use></g></g><g><use xlink:href="#czErCzzn3" opacity="1" fill="#13b479" fill-opacity="1"></use><g><use xlink:href="#czErCzzn3" opacity="1" fill-opacity="0" stroke="#000000" stroke-width="1" stroke-opacity="0"></use></g></g><g><use xlink:href="#a13gAnklhB" opacity="1" fill="#13b479" fill-opacity="1"></use><g><use xlink:href="#a13gAnklhB" opacity="1" fill-opacity="0" stroke="#000000" stroke-width="1" stroke-opacity="0"></use></g></g><g><use xlink:href="#b2wEe7axGY" opacity="1" fill="#13b479" fill-opacity="1"></use><g><use xlink:href="#b2wEe7axGY" opacity="1" fill-opacity="0" stroke="#000000" stroke-width="1" stroke-opacity="0"></use></g></g><g><use xlink:href="#aUtAEayGu" opacity="1" fill="#13b479" fill-opacity="1"></use><g><use xlink:href="#aUtAEayGu" opacity="1" fill-opacity="0" stroke="#000000" stroke-width="1" stroke-opacity="0"></use></g></g><g><use xlink:href="#anhIADelz" opacity="1" fill="#13b479" fill-opacity="1"></use><g><use xlink:href="#anhIADelz" opacity="1" fill-opacity="0" stroke="#000000" stroke-width="1" stroke-opacity="0"></use></g></g><g><use xlink:href="#bxDPjF1UE" opacity="1" fill="#13b479" fill-opacity="1"></use><g><use xlink:href="#bxDPjF1UE" opacity="1" fill-opacity="0" stroke="#000000" stroke-width="1" stroke-opacity="0"></use></g></g><g><use xlink:href="#a32GNQqoK" opacity="1" fill="#13b479" fill-opacity="1"></use><g><use xlink:href="#a32GNQqoK" opacity="1" fill-opacity="0" stroke="#000000" stroke-width="1" stroke-opacity="0"></use></g></g><g><use xlink:href="#aul0xHHr" opacity="1" fill="#13b479" fill-opacity="1"></use><g><use xlink:href="#aul0xHHr" opacity="1" fill-opacity="0" stroke="#000000" stroke-width="1" stroke-opacity="0"></use></g></g><g><use xlink:href="#as7fKVgWR" opacity="1" fill="#13b479" fill-opacity="1"></use><g><use xlink:href="#as7fKVgWR" opacity="1" fill-opacity="0" stroke="#000000" stroke-width="1" stroke-opacity="0"></use></g></g><g><use xlink:href="#bNCVm7l89" opacity="1" fill="#13b479" fill-opacity="1"></use><g><use xlink:href="#bNCVm7l89" opacity="1" fill-opacity="0" stroke="#000000" stroke-width="1" stroke-opacity="0"></use></g></g></g></g></svg>